HIERARCHY
ROOT Hips
{
    OFFSET   0.000000   0.000000   0.000000
    CHANNELS 6 Xposition Yposition Zposition Zrotation Xrotation Yrotation
    JOINT Chest
    {
        OFFSET   0.000000   8.007230   0.000000
        CHANNELS 3 Zrotation Xrotation Yrotation
        JOINT Chest2
        {
            OFFSET   0.000000  22.077100   0.000000
            CHANNELS 3 Zrotation Xrotation Yrotation
            JOINT Neck
            {
                OFFSET   0.000000  23.255100   0.000000
                CHANNELS 3 Zrotation Xrotation Yrotation
                JOINT Head
                {
                    OFFSET   0.000000  14.370100   1.956600
                    CHANNELS 3 Zrotation Xrotation Yrotation
                    End Site
                    {
                        OFFSET   0.000000  19.566000   0.000000
                    }
                }
            }
            JOINT LeftCollar
            {
                OFFSET   3.911900  19.017000  -0.467063
                CHANNELS 3 Zrotation Xrotation Yrotation
                JOINT LeftShoulder
                {
                    OFFSET  10.383700   0.000000   0.000000
                    CHANNELS 3 Zrotation Xrotation Yrotation
                    JOINT LeftElbow
                    {
                        OFFSET  26.662100   0.001193   0.000980
                        CHANNELS 3 Zrotation Xrotation Yrotation
                        JOINT LeftWrist
                        {
                            OFFSET  28.869000  -0.000059  -0.000082
                            CHANNELS 3 Zrotation Xrotation Yrotation
                            JOINT LeftFinger0
                            {
                                OFFSET   2.044650  -2.323450   3.252850
                                CHANNELS 3 Zrotation Xrotation Yrotation
                                JOINT LeftFinger01
                                {
                                    OFFSET   3.088130   0.000000   0.000000
                                    CHANNELS 3 Zrotation Xrotation Yrotation
                                    JOINT LeftFinger02
                                    {
                                        OFFSET   2.639460   0.000000   0.000000
                                        CHANNELS 3 Zrotation Xrotation Yrotation
                                        End Site
                                        {
                                            OFFSET   2.582190   0.000000   0.000000
                                        }
                                    }
                                }
                            }
                            JOINT LeftFinger1
                            {
                                OFFSET   8.364480   0.000000   3.252850
                                CHANNELS 3 Zrotation Xrotation Yrotation
                                JOINT LeftFinger11
                                {
                                    OFFSET   4.646930   0.000000   0.000000
                                    CHANNELS 3 Zrotation Xrotation Yrotation
                                    JOINT LeftFinger12
                                    {
                                        OFFSET   2.323470   0.000000   0.000000
                                        CHANNELS 3 Zrotation Xrotation Yrotation
                                        End Site
                                        {
                                            OFFSET   2.273050   0.000000   0.000000
                                        }
                                    }
                                }
                            }
                            JOINT LeftFinger2
                            {
                                OFFSET   8.364490   0.000016   1.078090
                                CHANNELS 3 Zrotation Xrotation Yrotation
                                JOINT LeftFinger21
                                {
                                    OFFSET   5.111610   0.000000   0.000000
                                    CHANNELS 3 Zrotation Xrotation Yrotation
                                    JOINT LeftFinger22
                                    {
                                        OFFSET   2.788150   0.000016   0.000000
                                        CHANNELS 3 Zrotation Xrotation Yrotation
                                        End Site
                                        {
                                            OFFSET   2.727660   0.000000   0.000000
                                        }
                                    }
                                }
                            }
                            JOINT LeftFinger3
                            {
                                OFFSET   7.899780   0.000015  -1.078090
                                CHANNELS 3 Zrotation Xrotation Yrotation
                                JOINT LeftFinger31
                                {
                                    OFFSET   4.646930   0.000000   0.000000
                                    CHANNELS 3 Zrotation Xrotation Yrotation
                                    JOINT LeftFinger32
                                    {
                                        OFFSET   2.323470   0.000000   0.000000
                                        CHANNELS 3 Zrotation Xrotation Yrotation
                                        End Site
                                        {
                                            OFFSET   2.273050   0.000000   0.000000
                                        }
                                    }
                                }
                            }
                            JOINT LeftFinger4
                            {
                                OFFSET   7.435090   0.000000  -3.252850
                                CHANNELS 3 Zrotation Xrotation Yrotation
                                JOINT LeftFinger41
                                {
                                    OFFSET   3.717550   0.000000   0.000000
                                    CHANNELS 3 Zrotation Xrotation Yrotation
                                    JOINT LeftFinger42
                                    {
                                        OFFSET   1.858770   0.000000   0.000000
                                        CHANNELS 3 Zrotation Xrotation Yrotation
                                        End Site
                                        {
                                            OFFSET   1.818440   0.000000   0.000000
                                        }
                                    }
                                }
                            }
                        }
                    }
                }
            }
            JOINT RightCollar
            {
                OFFSET  -3.911910  19.017000  -0.467062
                CHANNELS 3 Zrotation Xrotation Yrotation
                JOINT RightShoulder
                {
                    OFFSET -10.383700   0.000014   0.000000
                    CHANNELS 3 Zrotation Xrotation Yrotation
                    JOINT RightElbow
                    {
                        OFFSET -26.662100   0.001225   0.001091
                        CHANNELS 3 Zrotation Xrotation Yrotation
                        JOINT RightWrist
                        {
                            OFFSET -28.869000  -0.000020  -0.000085
                            CHANNELS 3 Zrotation Xrotation Yrotation
                            JOINT RightFinger0
                            {
                                OFFSET  -2.044650  -2.323490   3.252850
                                CHANNELS 3 Zrotation Xrotation Yrotation
                                JOINT RightFinger01
                                {
                                    OFFSET  -3.088130   0.000000   0.000000
                                    CHANNELS 3 Zrotation Xrotation Yrotation
                                    JOINT RightFinger02
                                    {
                                        OFFSET  -2.639460   0.000000   0.000000
                                        CHANNELS 3 Zrotation Xrotation Yrotation
                                        End Site
                                        {
                                            OFFSET  -2.582190   0.000000   0.000000
                                        }
                                    }
                                }
                            }
                            JOINT RightFinger1
                            {
                                OFFSET  -8.364480   0.000000   3.252850
                                CHANNELS 3 Zrotation Xrotation Yrotation
                                JOINT RightFinger11
                                {
                                    OFFSET  -4.646930   0.000000   0.000000
                                    CHANNELS 3 Zrotation Xrotation Yrotation
                                    JOINT RightFinger12
                                    {
                                        OFFSET  -2.323470   0.000000   0.000000
                                        CHANNELS 3 Zrotation Xrotation Yrotation
                                        End Site
                                        {
                                            OFFSET  -2.273050   0.000000   0.000000
                                        }
                                    }
                                }
                            }
                            JOINT RightFinger2
                            {
                                OFFSET  -8.364480   0.000000   1.078090
                                CHANNELS 3 Zrotation Xrotation Yrotation
                                JOINT RightFinger21
                                {
                                    OFFSET  -5.111620   0.000000   0.000000
                                    CHANNELS 3 Zrotation Xrotation Yrotation
                                    JOINT RightFinger22
                                    {
                                        OFFSET  -2.788160   0.000000   0.000000
                                        CHANNELS 3 Zrotation Xrotation Yrotation
                                        End Site
                                        {
                                            OFFSET  -2.727660   0.000000   0.000000
                                        }
                                    }
                                }
                            }
                            JOINT RightFinger3
                            {
                                OFFSET  -7.899780   0.000000  -1.078090
                                CHANNELS 3 Zrotation Xrotation Yrotation
                                JOINT RightFinger31
                                {
                                    OFFSET  -4.646930   0.000000   0.000000
                                    CHANNELS 3 Zrotation Xrotation Yrotation
                                    JOINT RightFinger32
                                    {
                                        OFFSET  -2.323470   0.000000   0.000000
                                        CHANNELS 3 Zrotation Xrotation Yrotation
                                        End Site
                                        {
                                            OFFSET  -2.273050   0.000000   0.000000
                                        }
                                    }
                                }
                            }
                            JOINT RightFinger4
                            {
                                OFFSET  -7.435090   0.000000  -3.252850
                                CHANNELS 3 Zrotation Xrotation Yrotation
                                JOINT RightFinger41
                                {
                                    OFFSET  -3.717550   0.000000   0.000000
                                    CHANNELS 3 Zrotation Xrotation Yrotation
                                    JOINT RightFinger42
                                    {
                                        OFFSET  -1.858760   0.000000   0.000000
                                        CHANNELS 3 Zrotation Xrotation Yrotation
                                        End Site
                                        {
                                            OFFSET  -1.818440   0.000000   0.000000
                                        }
                                    }
                                }
                            }
                        }
                    }
                }
            }
        }
    }
    JOINT LeftHip
    {
        OFFSET   9.783030   0.000000   0.000000
        CHANNELS 3 Zrotation Xrotation Yrotation
        JOINT LeftKnee
        {
            OFFSET   0.000063 -41.789100   0.000608
            CHANNELS 3 Zrotation Xrotation Yrotation
            JOINT LeftAnkle
            {
                OFFSET   0.000048 -41.133200  -0.000184
                CHANNELS 3 Zrotation Xrotation Yrotation
                JOINT LeftToe
                {
                    OFFSET   0.000000  -6.358960  14.674500
                    CHANNELS 3 Zrotation Xrotation Yrotation
                    End Site
                    {
                        OFFSET   0.000000   0.000000   3.913200
                    }
                }
            }
        }
    }
    JOINT RightHip
    {
        OFFSET  -9.783030   0.000000   0.000000
        CHANNELS 3 Zrotation Xrotation Yrotation
        JOINT RightKnee
        {
            OFFSET   0.000071 -41.789100   0.001239
            CHANNELS 3 Zrotation Xrotation Yrotation
            JOINT RightAnkle
            {
                OFFSET   0.000037 -41.133200  -0.000166
                CHANNELS 3 Zrotation Xrotation Yrotation
                JOINT RightToe
                {
                    OFFSET   0.000000  -6.358960  14.674500
                    CHANNELS 3 Zrotation Xrotation Yrotation
                    End Site
                    {
                        OFFSET   0.000000   0.000000   3.913200
                    }
                }
            }
        }
    }
}
MOTION
Frames: 4
Frame Time:   0.016667
 -1.799350  88.256700  -3.780130  -1.814450 -22.590900  -2.395960  -1.212730  17.776800   0.641622  -2.872580  35.532700   1.847280   2.270300  -3.942770   0.160909   3.775470  -7.955960  10.000600  -5.887880 -12.220100   1.618250 -49.346800  29.737400 -38.292200  14.958300 -10.844100 -97.557600  41.976300  -2.069240  -4.592090  66.808200  51.898900 -99.631200 -25.853800  -0.003924  -0.001820  -7.926900  -0.001618  -0.001295 -68.370800   1.534530  -0.617290 -55.949300  -0.000689   0.001651 -41.961900  -0.000639   0.000993 -76.643400  -0.003490   0.000842 -76.643400   0.000431   0.002244 -57.482600  -0.001764   0.008430 -71.197600  -5.206230   1.765800 -71.278100  -0.001319   0.002979 -53.458600  -0.002381   0.000205 -76.103400  -9.713960   2.387840 -110.000000  -0.000249   0.000731 -76.230200  -0.002082  -0.001669  10.861700  -5.607360  16.208000  56.725900  23.542300  29.295600  -7.993630  -8.430890  60.709400 -33.241200 -27.117100 -17.722300 -42.298300  36.264700  38.702400  28.675900  -0.004013  -0.002789   9.172060  -0.008138  -0.004365  66.849500   1.086000   0.496339  54.695600   0.010300   0.035760  41.021700   0.023184   0.015097  77.415900  -0.019912   0.019351  77.416000   0.013307   0.024332  58.062000   0.022615   0.002521  68.406500  -5.501100  -2.099190  68.509900   0.028928   0.053006  51.382500   0.044112   0.009857  70.507700  -9.490200  -3.264660 106.176000   0.098967   0.054040  70.713500   0.058098  -0.045598   3.300400   9.823570   3.837020  -1.960560  23.626700  10.617800  -6.753440 -11.435700   1.165040   0.000000   0.000000  -0.000000   3.594670  12.328800 -13.458700  -3.349380  18.743900  -3.599210  -9.278180  -6.615420   4.125710   0.000000   0.000000   0.000000
 -1.620370  88.423400  -3.462560  -1.439870 -22.403300  -1.772340  -1.182090  17.476300   0.615759  -2.783130  34.933300   1.765060   2.214040  -4.093190   0.160818   3.688230  -8.261800   9.449510  -5.981840 -12.294200   1.747980 -48.928700  30.165800 -38.461800  15.429600 -10.512600 -97.822000  43.804500  -2.871970  -5.439990  64.900300  51.959700 -99.106100 -26.871100  -0.013716   0.000686  -8.435540  -0.006653  -0.000267 -68.874000   1.586660  -0.618469 -56.362200  -0.000667   0.001888 -42.271600  -0.000828   0.001137 -77.035800  -0.003688   0.003274 -77.035800  -0.001366   0.002590 -57.776900  -0.002382   0.008957 -71.440700  -5.176030   1.740580 -71.519700  -0.001749   0.003163 -53.639800  -0.002699   0.000068 -76.286600  -9.717220   2.364380 -109.987000  -0.000171   0.000490 -76.411400  -0.002064  -0.002616  11.042300  -5.826150  16.259800  56.991400  23.796400  27.811500  -7.859950  -6.111850  57.960900 -36.607800 -26.733900 -18.545500 -44.408700  39.799300  43.450700  29.263900  -0.001055  -0.001307   9.538670  -0.008148   0.005254  65.681100   0.800326   0.384364  53.736700  -0.001801   0.021894  40.302600   0.009277   0.013916  76.007800  -0.018455   0.002096  76.007300  -0.007130   0.022490  57.005400   0.010849   0.012651  67.087300  -5.598410  -2.324640  67.200700   0.006693   0.037688  50.400600   0.023631   0.015283  68.526300  -9.357420  -3.615610 103.239000   0.045575   0.053439  68.757100   0.046592  -0.013744   2.758630  10.335100   3.865990  -1.510980  22.383300  10.398900  -6.809140 -10.960700   0.887486  -0.000000   0.000000   0.000000   3.407330  12.805300 -13.201000  -3.204410  17.866900  -4.150620  -9.158700  -6.309270   3.955940   0.000000   0.000000   0.000000
 -1.434620  88.590600  -3.149480  -1.042780 -22.197500  -1.128620  -1.166790  17.169500   0.606229  -2.733310  34.320200   1.724470   2.162960  -4.250690   0.160694   3.608760  -8.581960   8.881310  -6.045550 -12.328500   1.985930 -48.557200  30.549000 -38.530200  15.724900 -10.067400 -97.659500  44.669000  -3.624430  -6.058560  62.626400  51.998700 -98.370900 -27.942900  -0.022541   0.007377  -8.971450  -0.011703   0.001765 -69.404500   1.677330  -0.626647 -56.793200  -0.000510   0.001993 -42.594900  -0.000918   0.001201 -77.377700  -0.003782   0.004554 -77.377700  -0.002333   0.002728 -58.033300  -0.002667   0.009475 -71.610900  -5.162890   1.717550 -71.688200  -0.001956   0.003189 -53.766200  -0.002794  -0.000476 -76.471300  -9.725780   2.331210 -109.974000  -0.000084   0.000244 -76.592700  -0.001940  -0.003190  11.269000  -6.050760  16.384000  56.996100  24.071900  26.121800  -8.940610  -3.780330  56.192200 -41.078100 -25.974900 -19.438000 -45.819600  41.403000  46.941200  30.294000  -0.000265   0.000175  10.147000  -0.008149   0.014873  64.302500   0.512109   0.247628  52.608400  -0.013902   0.007184  39.456300  -0.004630   0.010848  75.249600  -0.016999  -0.003692  75.248600  -0.010050   0.018690  56.436400   0.007557   0.014098  65.219900  -5.733160  -2.638930  65.349200  -0.015542   0.016359  49.011900   0.001650   0.016881  65.757900  -9.165840  -4.099590  99.130200  -0.007817   0.049236  66.020700   0.028144   0.018110   2.162030  10.838100   3.875620  -1.056900  21.124000  10.177400  -6.840840 -10.480600   0.666563   0.000000   0.000000  -0.000000   3.199410  13.269600 -12.906900  -3.048670  16.989000  -4.748320  -9.058710  -5.999430   3.776120   0.000000   0.000000   0.000000
 -1.249000  88.753700  -2.864530  -0.637581 -21.965500  -0.463452  -1.155640  16.850100   0.599773  -2.695130  33.682100   1.695230   2.093480  -4.416880   0.160642   3.498640  -8.920160   8.351350  -6.063160 -12.250100   2.349380 -48.232800  30.854600 -38.546900  15.552000  -9.378180 -97.059000  44.437600  -4.244400  -7.059070  59.610800  51.891900 -97.269100 -29.293700  -0.028761   0.021609  -9.646860  -0.016199   0.008007 -69.825100   1.779330  -0.668525 -57.137000   0.002248  -0.005858 -42.852800   0.004403  -0.001882 -77.545900   0.019710  -0.013823 -77.545700   0.006602  -0.006670 -58.159200   0.006867   0.009972 -71.603300  -5.167980   1.697770 -71.679000   0.004941  -0.010198 -53.759300   0.008371  -0.002190 -76.462700  -9.743710   2.315800 -110.146000  -0.000030   0.000121 -76.582800   0.007860   0.010100  11.553600  -6.195770  16.591400  56.522500  24.966800  24.566800 -10.115400  -3.242550  54.945200 -43.006900 -24.600600 -20.855700 -43.857900  38.966400  46.127900  31.473900  -0.000269  -0.001649  10.747300  -0.008145   0.006473  63.965400   0.451151   0.228664  52.335900  -0.005140   0.006324  39.251900  -0.004279   0.004481  74.731600  -0.045648  -0.009535  74.731100  -0.000923   0.013067  56.048300   0.005996   0.005571  64.535500  -5.774260  -2.739820  64.672500  -0.005709   0.007636  48.504300   0.000124   0.008556  64.770900  -9.082620  -4.254820  97.663200  -0.000789   0.023398  65.043700   0.011879   0.007397   1.524270  11.314700   3.819560  -0.590683  19.841600   9.896710  -6.804750  -9.982490   0.582250  -0.000000   0.000000  -0.000000   2.995470  13.706700 -12.547600  -2.871900  16.122700  -5.420790  -8.998570  -5.681220   3.577900   0.000000   0.000000  -0.000000
